<?xml version="1.0" encoding="UTF-8"?>
<svg viewBox="0 0 142 33" xmlns="http://www.w3.org/2000/svg">
<path d="m0 6.7373v25.871h3.7584v-18.734h0.24289l7.7213 18.696h3.1192l7.7213-18.683h0.2429v18.721h3.7583v-25.871h-4.7938l-8.3349 20.111h-0.3068l-8.335-20.111h-4.7938z" fill="#fff"/>
<path d="m41.131 33c4.2825 0 7.3122-2.0843 8.1815-5.2424l-3.6178-0.6443c-0.6903 1.8317-2.3522 2.7665-4.5254 2.7665-3.2726 0-5.4714-2.097-5.5736-5.8362h13.96v-1.339c0-7.011-4.2442-9.7522-8.6929-9.7522-5.4714 0-9.0764 4.1182-9.0764 10.081 0 6.0257 3.5539 9.967 9.3449 9.967zm-5.5225-11.786c0.1534-2.7539 2.1732-5.1414 5.2796-5.1414 2.9658 0 4.9089 2.1728 4.9217 5.1414h-10.201z" fill="#fff"/>
<path d="m68.511 17.942c-0.7926-3.0191-3.1831-4.9898-7.4273-4.9898-4.4359 0-7.5807 2.3117-7.5807 5.7477 0 2.7539 1.6874 4.5856 5.3691 5.3941l3.3238 0.72c1.8919 0.4169 2.774 1.2506 2.774 2.4633 0 1.5033-1.6235 2.6781-4.1291 2.6781-2.2883 0-3.7584-0.9727-4.2186-2.8802l-3.6945 0.5558c0.6392 3.436 3.5283 5.3688 7.9387 5.3688 4.7427 0 8.0281-2.4886 8.0281-6.0004 0-2.7412-1.7642-4.434-5.3691-5.2551l-3.1192-0.7074c-2.1605-0.5053-3.0937-1.2253-3.0809-2.5391-0.0128-1.4906 1.6235-2.5517 3.7967-2.5517 2.3778 0 3.4772 1.3011 3.9246 2.6023l3.4644-0.6064z" fill="#fff"/>
<path d="m82.262 13.205h-4.0268v-4.6488h-3.8223v4.6488h-2.8763v3.0317h2.8763v11.458c-0.0128 3.5244 2.7101 5.2298 5.7271 5.1666 1.2144-0.0126 2.0326-0.24 2.48-0.4042l-0.6903-3.1202c-0.2557 0.0505-0.7287 0.1642-1.3423 0.1642-1.24 0-2.3522-0.4042-2.3522-2.5896v-10.674h4.0268v-3.0317z" fill="#fff"/>
<path d="m94.551 33c5.5352 0 9.1532-4.0045 9.1532-10.005 0-6.0382-3.618-10.043-9.1532-10.043-5.5353 0-9.1531 4.0045-9.1531 10.043 0 6.0004 3.6178 10.005 9.1531 10.005zm0.0128-3.1707c-3.6178 0-5.3052-3.1202-5.3052-6.8468 0-3.7139 1.6874-6.872 5.3052-6.872 3.5922 0 5.2796 3.1581 5.2796 6.872 0 3.7266-1.6874 6.8468-5.2796 6.8468z" fill="#fff"/>
<path d="m107.18 8.8932h1.057v-3.3686h1.909c0.077 0 0.149 0 0.222-0.00421l1.841 3.3728h1.227l-1.973-3.5623c1.112-0.37476 1.632-1.2717 1.632-2.417 0-1.5243-0.92-2.6444-2.966-2.6444h-2.949v8.6237zm1.057-4.3118v-3.3855h1.858c1.415 0 1.96 0.68214 1.96 1.718s-0.545 1.6675-1.943 1.6675h-1.875z" fill="#fff"/>
<path d="m118.84 6.2488c0 1.2127-0.937 1.7685-1.687 1.7685-0.835 0-1.432-0.60635-1.432-1.5496v-4.0424h-1.005v4.1097c0 1.6506 0.886 2.4423 2.113 2.4423 0.989 0 1.636-0.52214 1.943-1.179h0.068v1.0948h1.006v-6.4678h-1.006v3.8234z" fill="#fff"/>
<path d="m126.32 3.8739c-0.315-0.91795-1.023-1.5327-2.318-1.5327-1.381 0-2.403 0.77479-2.403 1.8696 0 0.89269 0.537 1.4906 1.738 1.7685l1.091 0.25265c0.661 0.15159 0.972 0.46318 0.972 0.90953 0 0.55582-0.597 1.0106-1.534 1.0106-0.823 0-1.338-0.3495-1.517-1.0443l-0.955 0.23581c0.235 1.099 1.151 1.6843 2.489 1.6843 1.521 0 2.556-0.82111 2.556-1.937 0-0.90111-0.571-1.4696-1.738-1.7517l-0.972-0.23581c-0.775-0.18948-1.125-0.44634-1.125-0.94321 0-0.55583 0.597-0.96007 1.398-0.96007 0.878 0 1.24 0.48003 1.415 0.92638l0.903-0.25265z" fill="#fff"/>
<path d="m132.59 3.8739c-0.315-0.91795-1.022-1.5327-2.318-1.5327-1.38 0-2.403 0.77479-2.403 1.8696 0 0.89269 0.537 1.4906 1.739 1.7685l1.09 0.25265c0.661 0.15159 0.972 0.46318 0.972 0.90953 0 0.55582-0.597 1.0106-1.534 1.0106-0.822 0-1.338-0.3495-1.517-1.0443l-0.955 0.23581c0.235 1.099 1.151 1.6843 2.489 1.6843 1.521 0 2.557-0.82111 2.557-1.937 0-0.90111-0.571-1.4696-1.739-1.7517l-0.971-0.23581c-0.776-0.18948-1.125-0.44634-1.125-0.94321 0-0.55583 0.596-0.96007 1.397-0.96007 0.878 0 1.24 0.48003 1.415 0.92638l0.903-0.25265z" fill="#fff"/>
<path d="m134.23 8.8932h1.005v-6.4678h-1.005v6.4678zm0.511-7.5458c0.392 0 0.716-0.30317 0.716-0.67372 0-0.37055-0.324-0.67373-0.716-0.67373s-0.716 0.30318-0.716 0.67373c0 0.37055 0.324 0.67372 0.716 0.67372z" fill="#fff"/>
<path d="m139 9.0448c1.142 0 1.739-0.60636 1.943-1.0274h0.051v0.87585h1.006v-4.2613c0-2.0549-1.585-2.2907-2.42-2.2907-0.989 0-2.114 0.33687-2.625 1.5159l0.954 0.33686c0.222-0.47161 0.746-0.9769 1.705-0.9769 0.924 0 1.38 0.48424 1.38 1.3138v0.03368c0 0.48003-0.494 0.43792-1.687 0.58951-1.215 0.1558-2.54 0.42108-2.54 1.9033 0 1.2632 0.989 1.9875 2.233 1.9875zm0.154-0.89269c-0.802 0-1.381-0.35371-1.381-1.0443 0-0.75794 0.699-0.99375 1.483-1.0948 0.426-0.05053 1.568-0.16844 1.738-0.37055v0.90953c0 0.80847-0.647 1.6001-1.84 1.6001z" fill="#fff"/>
</svg>
